<?xml version="1.0" encoding="UTF-8" standalone="no"?>
<!-- Created with Inkscape (http://www.inkscape.org/) -->

<svg
   width="1024"
   height="1024"
   viewBox="0 0 270.93333 270.93333"
   version="1.1"
   id="svg5"
   xml:space="preserve"
   inkscape:export-filename="logo2.png"
   inkscape:export-xdpi="96"
   inkscape:export-ydpi="96"
   inkscape:version="1.2.1 (9c6d41e4, 2022-07-14)"
   sodipodi:docname="logo.svg"
   xmlns:inkscape="http://www.inkscape.org/namespaces/inkscape"
   xmlns:sodipodi="http://sodipodi.sourceforge.net/DTD/sodipodi-0.dtd"
   xmlns="http://www.w3.org/2000/svg"
   xmlns:svg="http://www.w3.org/2000/svg"><sodipodi:namedview
     id="namedview7"
     pagecolor="#ffffff"
     bordercolor="#000000"
     borderopacity="0.25"
     inkscape:showpageshadow="2"
     inkscape:pageopacity="0.0"
     inkscape:pagecheckerboard="0"
     inkscape:deskcolor="#d1d1d1"
     inkscape:document-units="mm"
     showgrid="false"
     inkscape:zoom="0.28353971"
     inkscape:cx="491.99458"
     inkscape:cy="611.90724"
     inkscape:window-width="1424"
     inkscape:window-height="817"
     inkscape:window-x="0"
     inkscape:window-y="25"
     inkscape:window-maximized="0"
     inkscape:current-layer="layer1" /><defs
     id="defs2" /><g
     inkscape:label="Layer 1"
     inkscape:groupmode="layer"
     id="layer1"
     style="display:inline"><g
       id="g1060"
       transform="translate(0,6.5320069)"><path
         style="fill:none;stroke:#000000;stroke-width:15;stroke-dasharray:none;stroke-opacity:1"
         d="m 136.413,231.55328 c 1.15384,-0.81694 3.7574,-2.90064 5.78571,-4.63044 2.02827,-1.7298 5.19564,-4.22535 7.03858,-5.54568 1.84292,-1.32034 4.09511,-3.17784 5.00487,-4.12778 0.90974,-0.94994 2.83946,-2.70608 4.28823,-3.90254 1.44879,-1.19643 3.60158,-3.06442 4.78402,-4.15104 11.61135,-10.67068 10.66138,-9.74754 19.71354,-19.15667 7.91814,-8.23042 14.01658,-14.95666 17.64876,-19.46557 1.15902,-1.43879 2.59588,-3.15153 3.19301,-3.80611 0.59713,-0.65455 1.64954,-2.0646 2.33869,-3.13345 0.68914,-1.06882 1.7737,-2.51098 2.41012,-3.20479 1.47558,-1.60861 8.04418,-11.24215 9.48894,-13.91647 0.60447,-1.11891 2.33698,-4.13765 3.85003,-6.70829 3.09055,-5.25083 4.45889,-8.49818 6.804,-16.1475 4.21928,-13.7625 3.67586,-27.84655 -1.6528,-42.834735 -1.49045,-4.192241 -1.96655,-5.043067 -6.47923,-11.578463 -4.26099,-6.170926 -8.3697,-10.239357 -13.97248,-13.835509 -6.11823,-3.927 -11.46896,-5.544745 -19.67784,-5.949405 -5.30004,-0.261238 -7.12606,-0.119405 -11.29655,0.877965 -10.48448,2.5072 -18.03395,6.872051 -26.45937,15.297912 -3.08487,3.085008 -8.93521,10.089489 -11.59379,13.880912 -1.41711,2.020975 -3.54515,4.396367 -3.73029,4.16389 -0.12146,-0.152561 -1.84683,-2.775789 -3.8342,-5.829599 -8.66159,-13.309382 -20.79023,-23.174587 -33.173561,-26.982726 -3.612009,-1.110775 -5.306871,-1.288396 -11.85364,-1.24225 -9.892,0.06965 -13.36171,1.035377 -20.931655,5.825466 -5.76243,3.646324 -7.968521,5.610785 -11.501524,10.241786 -1.140778,1.495288 -2.220407,2.843619 -2.399214,2.996302 -0.422106,0.360487 -4.133278,6.441639 -5.278995,8.650243 -1.240833,2.391972 -4.59027,13.725052 -4.881618,16.517402 -1.390091,13.322719 -0.373084,25.066709 2.845135,32.854619 0.50476,1.22153 1.097928,2.84558 1.318132,3.60903 1.239957,4.29899 11.016355,21.41379 15.498924,27.13279 0.869561,1.10944 2.711149,3.51628 4.092401,5.34858 1.38127,1.83227 3.253144,4.20592 4.15978,5.27475 4.749963,5.59985 7.450041,8.79856 8.891722,10.5338 4.51758,5.4374 23.580663,24.89825 29.523493,30.13948 0.86928,0.76664 2.52878,2.31411 3.68781,3.43883 3.67438,3.56557 23.5367,20.82894 23.98013,20.84236 0.15014,0.004 1.21687,-0.66017 2.37073,-1.4771 z"
         id="path357"
         sodipodi:nodetypes="ssssscsssssssssssscssssssssssssssssssscs" /><path
         style="fill:#000000;stroke-width:0.112259"
         d="m 134.43743,169.99197 c -2.52117,-2.29837 -5.74202,-3.96414 -9.50662,-4.91668 -4.36941,-1.10556 -6.36211,-1.33988 -11.48715,-1.35075 -4.67536,-0.01 -6.39239,0.10431 -9.05393,0.60236 -0.68469,0.12812 -1.49955,0.27744 -1.81078,0.3318 -1.1932,0.20841 -3.380817,0.67836 -4.40082,0.94538 -1.650514,0.43209 -6.345572,1.99474 -7.51581,2.50148 -0.578574,0.25054 -1.126533,0.45553 -1.217709,0.45553 -0.145207,0 -0.162124,-3.44083 -0.136384,-27.74414 l 0.02939,-27.74411 0.452698,-0.25569 c 0.24898,-0.14063 0.520769,-0.25785 0.60398,-0.26052 0.0832,-0.003 0.923529,-0.37272 1.867368,-0.82238 2.891373,-1.37749 3.463523,-1.61888 6.92209,-2.92052 1.628067,-0.61272 3.886227,-1.26936 4.440477,-1.29123 0.0475,-0.002 0.16459,-0.0446 0.26006,-0.0948 0.0955,-0.0503 0.40104,-0.12307 0.67904,-0.16178 0.278,-0.0387 0.81103,-0.14131 1.18451,-0.22801 1.44014,-0.33433 3.46455,-0.52026 6.28115,-0.57688 2.48221,-0.05 3.17093,-0.0249 4.92307,0.17848 3.13482,0.36394 7.05204,1.24161 8.94074,2.00319 0.43573,0.1757 0.99594,0.38161 1.24491,0.45759 1.4066,0.42924 6.18823,2.67358 7.91777,3.71633 0.37646,0.22696 0.4671,0.24505 0.56587,0.11282 0.1683,-0.22532 3.84317,-2.12079 5.32359,-2.74587 0.37347,-0.15768 1.36658,-0.54282 2.20689,-0.85585 0.84033,-0.31304 1.83342,-0.68681 2.2069,-0.83061 1.10757,-0.42643 5.62516,-1.48065 7.18655,-1.67704 3.1359,-0.39441 6.45365,-0.50404 8.65781,-0.28609 0.62245,0.0615 1.41184,0.13981 1.7542,0.17392 0.34234,0.0341 0.87709,0.11295 1.18832,0.17521 0.31123,0.0622 0.76959,0.14012 1.01857,0.17303 0.45552,0.0602 2.8284,0.62195 4.3006,1.0181 0.43572,0.11725 1.14872,0.35122 1.58444,0.51995 4.71178,1.82459 5.05423,1.96802 7.58266,3.17576 0.74695,0.3568 1.69703,0.76144 2.11129,0.89919 0.66485,0.22109 0.76111,0.28931 0.82052,0.58157 0.12026,0.59158 0.077,55.64444 -0.0437,55.64444 -0.13453,0 -2.4723,-0.88809 -3.5554,-1.35066 -0.4293,-0.18334 -1.01352,-0.41117 -1.29827,-0.50629 -0.28475,-0.0951 -0.77383,-0.2878 -1.08684,-0.42819 -1.52082,-0.68211 -5.6589,-1.77648 -9.00057,-2.38031 -1.62944,-0.29444 -3.1101,-0.48376 -5.71528,-0.7308 -1.07069,-0.10151 -6.55895,-0.0711 -7.80901,0.0433 -3.15032,0.28824 -4.65774,0.52835 -6.4119,1.02135 -0.41425,0.11642 -0.82158,0.21168 -0.90516,0.21168 -0.0836,0 -0.81413,0.20942 -1.62345,0.4654 -2.82604,0.89382 -6.05548,2.74669 -8.15454,4.67862 -0.38616,0.35541 -0.74654,0.64486 -0.80086,0.64321 -0.0543,-0.002 -0.37885,-0.25833 -0.72121,-0.57042 z"
         id="path355"
         sodipodi:nodetypes="ssssssssscscsscscsscssssssssscsssssssssssssssssscss" /></g></g></svg>
